
<svg width="324px" height="194.4px" viewBox="0 0 324 194.4" version="1.1" xmlns="http://www.w3.org/2000/svg" xmlns:xlink="http://www.w3.org/1999/xlink">
    <defs>
        <linearGradient x1="4.85311148%" y1="31.9047657%" x2="108.203138%" y2="75.4902107%" id="linearGradient-16ca5a6tpp-1">
            <stop stop-color="#FFFFFF" stop-opacity="0.51" offset="0%"></stop>
            <stop stop-color="#FFFFFF" stop-opacity="0" offset="100%"></stop>
        </linearGradient>
        <linearGradient x1="-0.158729125%" y1="33.4329546%" x2="97.8673244%" y2="70.289127%" id="linearGradient-16ca5a6tpp-2">
            <stop stop-color="#FFFFFF" offset="0%"></stop>
            <stop stop-color="#FFFFFF" stop-opacity="0.2" offset="100%"></stop>
        </linearGradient>
    </defs>
    <g id="finpro" stroke="none" stroke-width="1" fill="none" fill-rule="evenodd">
        <g id="Artboard" transform="translate(0, -205)">
            <g id="card_transparent" transform="translate(0, 205)">
                <rect id="Rectangle" fill="url(#linearGradient-16ca5a6tpp-1)" fill-rule="nonzero" x="0" y="0" width="324" height="194.4" rx="19.2149"></rect>
                <rect id="Rectangle" fill-opacity="0.1" fill="#a1a1aa" fill-rule="nonzero" x="261.7713" y="145.54309" width="46.6285666" height="32.9142784" rx="6.28089"></rect>
                <path d="M285.330768,168.623063 C283.706904,169.992114 281.600923,170.818129 279.299083,170.818129 C274.163505,170.818129 270.000017,166.704426 270.000017,161.629767 C270.000017,156.555107 274.163505,152.440749 279.299083,152.440749 C281.600923,152.440749 283.706904,153.26742 285.330768,154.635816 C286.954633,153.26742 289.061269,152.440749 291.363108,152.440749 C296.498687,152.440749 300.662174,156.555107 300.662174,161.629767 C300.662174,166.704426 296.498687,170.818129 291.363108,170.818129 C289.061269,170.818129 286.954633,169.992114 285.330768,168.623063 Z" id="Path" fill="#a1a1aa" opacity="0.5"></path>
                <path d="M285.330768,168.623063 C287.330631,166.937623 288.598149,164.430098 288.598149,161.629767 C288.598149,158.829435 287.330631,156.321255 285.330768,154.635816 C286.954633,153.26742 289.061269,152.441404 291.363108,152.441404 C296.498687,152.441404 300.662174,156.555107 300.662174,161.629767 C300.662174,166.704426 296.498687,170.818129 291.363108,170.818129 C289.061269,170.818129 286.954633,169.992114 285.330768,168.623063 Z" id="Path" fill="#a1a1aa" opacity="0.5"></path>
                <path d="M285.330768,168.623063 C287.330631,166.937623 288.598149,164.430098 288.598149,161.629767 C288.598149,158.829435 287.330631,156.321255 285.331423,154.635816 C283.331561,156.321255 282.064042,158.829435 282.064042,161.629767 C282.064042,164.430098 283.331561,166.937623 285.330768,168.623063 Z" id="Path" fill="#a1a1aa"></path>
                <path d="M19.1602027,173.514963 L19.1602027,163.558229 L16.9302872,164.916144 L16.9302872,162.998818 L19.1602027,161.665794 L20.9129155,161.665794 L20.9129155,173.514963 L19.1602027,173.514963 Z M26.1771458,173.506448 L26.1853339,171.976255 L31.344691,167.351614 C31.7615637,166.984132 32.044086,166.633026 32.1921925,166.298296 C32.3458013,165.963566 32.4226385,165.628837 32.4226385,165.294762 C32.4226385,164.872256 32.3293596,164.493638 32.1428673,164.158908 C31.9563096,163.818938 31.6984826,163.549713 31.3693863,163.352544 C31.0402245,163.154719 30.6616721,163.056462 30.2337945,163.056462 C29.7949776,163.056462 29.4027347,163.160615 29.0571312,163.36892 C28.7170301,163.571985 28.4509495,163.843175 28.2589548,164.1838 C28.0669602,164.52377 27.9736813,164.891252 27.9791837,165.286246 L26.2182828,165.286246 C26.2182828,164.51853 26.3910845,163.84645 26.736688,163.270008 C27.0877284,162.68898 27.5677478,162.236341 28.1766808,161.912748 C28.7856137,161.583258 29.4822576,161.418841 30.2667434,161.418841 C31.012778,161.418841 31.6820408,161.589154 32.2744665,161.929124 C32.8669577,162.263853 33.3332211,162.724352 33.6733222,163.311276 C34.0189257,163.898199 34.1917275,164.567658 34.1917275,165.318999 C34.1917275,165.862034 34.1204582,166.323188 33.9777887,166.701806 C33.8351847,167.079769 33.6212459,167.430875 33.3359723,167.755124 C33.0506988,168.078717 32.694156,168.429823 32.2662784,168.807786 L28.2836502,172.362733 L28.0944067,171.868827 L34.1917275,171.868827 L34.1917275,173.506448 L26.1771458,173.506448 Z M41.9498577,173.737025 C41.3629345,173.737025 40.8115803,173.626977 40.2959262,173.407535 C39.7802722,173.182854 39.3332017,172.8645 38.9546493,172.45313 C38.5816648,172.04176 38.3100818,171.556369 38.1400312,170.996958 L39.8022163,170.535804 C39.9613276,171.046086 40.2383475,171.43846 40.6332761,171.712925 C41.0282703,171.981495 41.4671526,172.11316 41.9498577,172.10792 C42.3832377,172.102024 42.7644758,172.000492 43.0936376,171.803322 C43.4227994,171.605498 43.6806264,171.339548 43.8671187,171.004818 C44.0536764,170.664848 44.1468898,170.275749 44.1468898,169.836867 C44.1468898,169.178544 43.9412046,168.635508 43.5297688,168.207107 C43.1238353,167.77936 42.5917396,167.565815 41.933416,167.565815 C41.7469238,167.565815 41.5549291,167.592672 41.357432,167.647696 C41.1654374,167.70272 40.984382,167.77412 40.8143315,167.861896 L40.007967,166.503981 L44.1880268,162.809509 L44.3690822,163.303415 L38.6091113,163.303415 L38.6091113,161.665794 L45.734989,161.665794 L45.734989,163.303415 L42.2625778,166.644162 L42.2461361,166.084095 C42.9921706,166.084095 43.6394894,166.251788 44.1880268,166.586517 C44.7366298,166.915352 45.159005,167.36537 45.4552178,167.935917 C45.7569331,168.500569 45.9077907,169.134655 45.9077907,169.836867 C45.9077907,170.593448 45.7295521,171.265527 45.3729438,171.852451 C45.0219034,172.439374 44.5473864,172.900528 43.9493927,173.235258 C43.356967,173.569987 42.6904554,173.737025 41.9498577,173.737025 Z M55.5396212,173.514963 L55.5396212,171.449596 L50.1910207,171.449596 L50.1910207,169.820491 L54.0420497,161.665794 L56.0086358,161.665794 L52.1576722,169.820491 L55.5396212,169.820491 L55.5396212,166.610754 L57.2840804,166.610754 L57.2840804,169.820491 L58.4607437,169.820491 L58.4607437,171.449596 L57.2840804,171.449596 L57.2840804,173.514963 L55.5396212,173.514963 Z M70.7336635,173.514963 L70.7336635,163.558229 L68.503224,164.916144 L68.503224,162.998818 L70.7336635,161.665794 L72.4859178,161.665794 L72.4859178,173.514963 L70.7336635,173.514963 Z M77.7505411,173.506448 L77.7584017,171.976255 L82.9175622,167.351614 C83.334828,166.984132 83.6171539,166.633026 83.7651948,166.298296 C83.9191311,165.963566 83.9957718,165.628837 83.9957718,165.294762 C83.9957718,164.872256 83.9027549,164.493638 83.7160662,164.158908 C83.5293774,163.818938 83.2719434,163.549713 82.9424541,163.352544 C82.6136198,163.154719 82.2350019,163.056462 81.8072553,163.056462 C81.368373,163.056462 80.975999,163.160615 80.6301335,163.36892 C80.2901634,163.571985 80.0242138,163.843175 79.8322847,164.1838 C79.6403555,164.52377 79.5466836,164.891252 79.552579,165.286246 L77.7911541,165.286246 C77.7911541,164.51853 77.9640869,163.84645 78.3099524,163.270008 C78.6610583,162.68898 79.1412087,162.236341 79.7497486,161.912748 C80.3589435,161.583258 81.0552599,161.418841 81.8400078,161.418841 C82.5861078,161.418841 83.2549121,161.589154 83.8477309,161.929124 C84.4398945,162.263853 84.9062889,162.724352 85.246259,163.311276 C85.5921245,163.898199 85.7650573,164.567658 85.7650573,165.318999 C85.7650573,165.862034 85.693657,166.323188 85.5508565,166.701806 C85.408056,167.079769 85.1945102,167.430875 84.9089091,167.755124 C84.6239631,168.078717 84.2676168,168.429823 83.8392152,168.807786 L79.8565215,172.362733 L79.6678675,171.868827 L85.7650573,171.868827 L85.7650573,173.506448 L77.7505411,173.506448 Z M93.5227945,173.737025 C92.9358713,173.737025 92.3849756,173.626977 91.8694526,173.407535 C91.3532745,173.182854 90.9065316,172.8645 90.5279136,172.45313 C90.1545361,172.04176 89.8833461,171.556369 89.7130335,170.996958 L91.3755462,170.535804 C91.5347229,171.046086 91.8118083,171.43846 92.2068025,171.712925 C92.6017966,171.981495 93.0400239,172.11316 93.5227945,172.10792 C93.9564365,172.102024 94.3376747,172.000492 94.667164,171.803322 C94.9959982,171.605498 95.2540873,171.339548 95.440121,171.004818 C95.6268098,170.664848 95.7198266,170.275749 95.7198266,169.836867 C95.7198266,169.178544 95.5141414,168.635508 95.1027711,168.207107 C94.6972962,167.77936 94.1647419,167.565815 93.5064183,167.565815 C93.3203846,167.565815 93.1278004,167.592672 92.9306309,167.647696 C92.7387017,167.70272 92.5579084,167.77412 92.3875958,167.861896 L91.5812313,166.503981 L95.7610947,162.809509 L95.942543,163.303415 L90.1820481,163.303415 L90.1820481,161.665794 L97.3083188,161.665794 L97.3083188,163.303415 L93.8359076,166.644162 L93.8195314,166.084095 C94.5656315,166.084095 95.2128192,166.251788 95.7610947,166.586517 C96.3100252,166.915352 96.7325313,167.36537 97.0286132,167.935917 C97.3299354,168.500569 97.4812515,169.134655 97.4812515,169.836867 C97.4812515,170.593448 97.3024234,171.265527 96.9460771,171.852451 C96.5949712,172.439374 96.1207162,172.900528 95.5226571,173.235258 C94.9298383,173.569987 94.2636542,173.737025 93.5227945,173.737025 Z M107.113082,173.514963 L107.113082,171.449596 L101.763957,171.449596 L101.763957,169.820491 L105.614987,161.665794 L107.582097,161.665794 L103.731068,169.820491 L107.113082,169.820491 L107.113082,166.610754 L108.857476,166.610754 L108.857476,169.820491 L110.033943,169.820491 L110.033943,171.449596 L108.857476,171.449596 L108.857476,173.514963 L107.113082,173.514963 Z M122.306273,173.514963 L122.306273,163.558229 L120.076488,164.916144 L120.076488,162.998818 L122.306273,161.665794 L124.059182,161.665794 L124.059182,173.514963 L122.306273,173.514963 Z M129.323805,173.506448 L129.331666,171.976255 L134.490827,167.351614 C134.908092,166.984132 135.190418,166.633026 135.338459,166.298296 C135.492395,165.963566 135.569036,165.628837 135.569036,165.294762 C135.569036,164.872256 135.476019,164.493638 135.28933,164.158908 C135.102642,163.818938 134.845208,163.549713 134.515718,163.352544 C134.186884,163.154719 133.808266,163.056462 133.38052,163.056462 C132.941637,163.056462 132.549263,163.160615 132.203398,163.36892 C131.863428,163.571985 131.597478,163.843175 131.405549,164.1838 C131.21362,164.52377 131.119948,164.891252 131.125843,165.286246 L129.364418,165.286246 C129.364418,164.51853 129.537351,163.84645 129.883217,163.270008 C130.234323,162.68898 130.714473,162.236341 131.323013,161.912748 C131.932208,161.583258 132.628524,161.418841 133.413272,161.418841 C134.159372,161.418841 134.828176,161.589154 135.420995,161.929124 C136.013159,162.263853 136.479553,162.724352 136.819523,163.311276 C137.165389,163.898199 137.338322,164.567658 137.338322,165.318999 C137.338322,165.862034 137.266921,166.323188 137.124121,166.701806 C136.98132,167.079769 136.767775,167.430875 136.482173,167.755124 C136.197227,168.078717 135.840226,168.429823 135.41248,168.807786 L131.429786,172.362733 L131.240477,171.868827 L137.338322,171.868827 L137.338322,173.506448 L129.323805,173.506448 Z M145.096059,173.737025 C144.509136,173.737025 143.95824,173.626977 143.442062,173.407535 C142.926539,173.182854 142.479796,172.8645 142.101178,172.45313 C141.7278,172.04176 141.45661,171.556369 141.286298,170.996958 L142.94881,170.535804 C143.107987,171.046086 143.384418,171.43846 143.779412,171.712925 C144.174406,171.981495 144.613288,172.11316 145.096059,172.10792 C145.529701,172.102024 145.910939,172.000492 146.239773,171.803322 C146.569263,171.605498 146.826697,171.339548 147.013385,171.004818 C147.200074,170.664848 147.293091,170.275749 147.293091,169.836867 C147.293091,169.178544 147.087406,168.635508 146.676035,168.207107 C146.269905,167.77936 145.738006,167.565815 145.079683,167.565815 C144.892994,167.565815 144.701065,167.592672 144.503895,167.647696 C144.311966,167.70272 144.130518,167.77412 143.96086,167.861896 L143.154496,166.503981 L147.334359,162.809509 L147.515152,163.303415 L141.755312,163.303415 L141.755312,161.665794 L148.881583,161.665794 L148.881583,163.303415 L145.409172,166.644162 L145.392796,166.084095 C146.138241,166.084095 146.786084,166.251788 147.334359,166.586517 C147.883289,166.915352 148.305141,167.36537 148.601877,167.935917 C148.9032,168.500569 149.054516,169.134655 149.054516,169.836867 C149.054516,170.593448 148.875688,171.265527 148.519341,171.852451 C148.168235,172.439374 147.693981,172.900528 147.095921,173.235258 C146.503103,173.569987 145.836919,173.737025 145.096059,173.737025 Z M158.685691,173.514963 L158.685691,171.449596 L153.337222,171.449596 L153.337222,169.820491 L157.188251,161.665794 L159.154706,161.665794 L155.304332,169.820491 L158.685691,169.820491 L158.685691,166.610754 L160.43074,166.610754 L160.43074,169.820491 L161.607207,169.820491 L161.607207,171.449596 L160.43074,171.449596 L160.43074,173.514963 L158.685691,173.514963 Z M173.879537,173.514963 L173.879537,163.558229 L171.649753,164.916144 L171.649753,162.998818 L173.879537,161.665794 L175.632446,161.665794 L175.632446,173.514963 L173.879537,173.514963 Z M180.896415,173.506448 L180.90493,171.976255 L186.064091,167.351614 C186.481357,166.984132 186.763683,166.633026 186.911723,166.298296 C187.06566,165.963566 187.1423,165.628837 187.1423,165.294762 C187.1423,164.872256 187.048629,164.493638 186.862595,164.158908 C186.675906,163.818938 186.417817,163.549713 186.088983,163.352544 C185.759493,163.154719 185.381531,163.056462 184.953129,163.056462 C184.514247,163.056462 184.122528,163.160615 183.776662,163.36892 C183.436692,163.571985 183.170742,163.843175 182.978813,164.1838 C182.786229,164.52377 182.693212,164.891252 182.698453,165.286246 L180.937683,165.286246 C180.937683,164.51853 181.110616,163.84645 181.456481,163.270008 C181.807587,162.68898 182.287082,162.236341 182.896277,161.912748 C183.505472,161.583258 184.201789,161.418841 184.986536,161.418841 C185.732636,161.418841 186.401441,161.589154 186.99426,161.929124 C187.586423,162.263853 188.052818,162.724352 188.392788,163.311276 C188.738653,163.898199 188.911586,164.567658 188.911586,165.318999 C188.911586,165.862034 188.840186,166.323188 188.697385,166.701806 C188.554585,167.079769 188.341039,167.430875 188.055438,167.755124 C187.770492,168.078717 187.41349,168.429823 186.985744,168.807786 L183.00305,172.362733 L182.813741,171.868827 L188.911586,171.868827 L188.911586,173.506448 L180.896415,173.506448 Z M196.669323,173.737025 C196.0824,173.737025 195.530849,173.626977 195.015326,173.407535 C194.499803,173.182854 194.05306,172.8645 193.674442,172.45313 C193.301065,172.04176 193.029875,171.556369 192.859562,170.996958 L194.522075,170.535804 C194.680596,171.046086 194.957682,171.43846 195.352676,171.712925 C195.74767,171.981495 196.186553,172.11316 196.669323,172.10792 C197.102965,172.102024 197.484203,172.000492 197.813038,171.803322 C198.142527,171.605498 198.399961,171.339548 198.58665,171.004818 C198.773338,170.664848 198.866355,170.275749 198.866355,169.836867 C198.866355,169.178544 198.66067,168.635508 198.2493,168.207107 C197.84317,167.77936 197.311271,167.565815 196.652947,167.565815 C196.466258,167.565815 196.274329,167.592672 196.07716,167.647696 C195.88523,167.70272 195.703782,167.77412 195.534124,167.861896 L194.72776,166.503981 L198.907623,162.809509 L199.088417,163.303415 L193.328577,163.303415 L193.328577,161.665794 L200.454847,161.665794 L200.454847,163.303415 L196.982436,166.644162 L196.965405,166.084095 C197.711505,166.084095 198.359348,166.251788 198.907623,166.586517 C199.455899,166.915352 199.878405,167.36537 200.175142,167.935917 C200.476464,168.500569 200.627125,169.134655 200.627125,169.836867 C200.627125,170.593448 200.448952,171.265527 200.092606,171.852451 C199.7415,172.439374 199.267245,172.900528 198.669186,173.235258 C198.076367,173.569987 197.410183,173.737025 196.669323,173.737025 Z M210.258956,173.514963 L210.258956,171.449596 L204.910486,171.449596 L204.910486,169.820491 L208.761515,161.665794 L210.72797,161.665794 L206.876941,169.820491 L210.258956,169.820491 L210.258956,166.610754 L212.003349,166.610754 L212.003349,169.820491 L213.180471,169.820491 L213.180471,171.449596 L212.003349,171.449596 L212.003349,173.514963 L210.258956,173.514963 Z" id="Shape" fill="#a1a1aa" fill-rule="nonzero"></path>
                <path d="M20.5158907,144.428853 C19.6272521,144.428853 18.8702128,144.235614 18.2448381,143.84848 C17.6194635,143.458071 17.1401647,142.915036 16.8068761,142.219375 C16.4777143,141.524369 16.3131661,140.718004 16.3131661,139.800281 C16.3131661,138.882559 16.4777143,138.076194 16.8068761,137.381188 C17.1401647,136.685527 17.6194635,136.144457 18.2448381,135.757978 C18.8702128,135.366914 19.6272521,135.17171 20.5158907,135.17171 C21.4004679,135.17171 22.1554766,135.366914 22.7808512,135.757978 C23.4102872,136.144457 23.8896515,136.685527 24.2187478,137.381188 C24.5479096,138.076194 24.7124577,138.882559 24.7124577,139.800281 C24.7124577,140.718004 24.5479096,141.524369 24.2187478,142.219375 C23.8896515,142.915036 23.4102872,143.458071 22.7808512,143.84848 C22.1554766,144.235614 21.4004679,144.428853 20.5158907,144.428853 Z M20.5158907,143.200637 C21.1453921,143.209153 21.6679241,143.070938 22.0834868,142.787302 C22.5031108,142.499081 22.8178615,142.100156 23.0276734,141.589873 C23.2374854,141.075661 23.3424242,140.478911 23.3424242,139.800281 C23.3424242,139.121651 23.2374854,138.528833 23.0276734,138.023135 C22.8178615,137.512853 22.5031108,137.115893 22.0834868,136.831602 C21.6679241,136.547967 21.1453921,136.403856 20.5158907,136.399926 C19.8864547,136.39141 19.3618265,136.529625 18.9422026,136.813261 C18.5266399,137.096897 18.2139854,137.496476 18.0041734,138.010689 C17.7942959,138.524902 17.6873265,139.121651 17.6831997,139.800281 C17.6791384,140.478911 17.781981,141.073695 17.991793,141.583978 C18.2016049,142.089675 18.5163557,142.484669 18.9360451,142.76896 C19.3597959,143.052596 19.8864547,143.196707 20.5158907,143.200637 Z M26.6840877,144.243474 L26.6840877,135.357089 L27.9738778,135.357089 L27.9738778,143.027705 L31.9976431,143.027705 L31.9976431,144.243474 L26.6840877,144.243474 Z M33.7859905,144.243474 L33.7859905,135.357089 L35.0758462,135.357089 L35.0758462,144.243474 L33.7859905,144.243474 Z M39.6321658,144.243474 L36.7439922,135.357089 L38.083173,135.357089 L40.5455652,142.941238 L43.0388101,135.357089 L44.3779909,135.357089 L41.4898173,144.243474 L39.6321658,144.243474 Z M46.0493466,144.243474 L46.0493466,135.357089 L47.3391368,135.357089 L47.3391368,144.243474 L46.0493466,144.243474 Z M49.1923995,144.243474 L52.0806386,135.357089 L53.9382246,135.357089 L56.8264636,144.243474 L55.4872828,144.243474 L52.8273936,136.134631 L53.1606167,136.134631 L50.5315803,144.243474 L49.1923995,144.243474 Z M50.6920671,142.237716 L50.6920671,141.028497 L55.3329535,141.028497 L55.3329535,142.237716 L50.6920671,142.237716 Z M61.6389071,144.243474 L61.6389071,135.357089 L65.2306026,135.357089 C65.3170689,135.357089 65.4238418,135.361019 65.5515762,135.36888 C65.6793107,135.373465 65.8004946,135.385911 65.9157831,135.406217 C66.4096895,135.484168 66.8210599,135.653171 67.1498941,135.91257 C67.4833137,136.171314 67.7322321,136.498838 67.8966492,136.893832 C68.0610664,137.288826 68.1436024,137.724433 68.1436024,138.201964 C68.1436024,138.909416 67.9628091,139.520576 67.6005674,140.034789 C67.2383257,140.545071 66.6952906,140.86408 65.9714622,140.991159 L65.4467685,141.053389 L62.9287628,141.053389 L62.9287628,144.243474 L61.6389071,144.243474 Z M66.8354709,144.243474 L65.0825616,140.626952 L66.3847977,140.294188 L68.3099847,144.243474 L66.8354709,144.243474 Z M62.9287628,139.831069 L65.1814739,139.831069 C65.263355,139.831069 65.3544067,139.827138 65.4526639,139.818623 C65.5555065,139.810762 65.6524537,139.796351 65.7428503,139.77539 C66.0061798,139.713815 66.2184154,139.600492 66.3789023,139.436075 C66.5387341,139.267727 66.6540226,139.073833 66.7241127,138.856357 C66.7942029,138.638226 66.8289205,138.420095 66.8289205,138.201964 C66.8289205,137.983832 66.7942029,137.767666 66.7241127,137.554121 C66.6540226,137.33599 66.5387341,137.144716 66.3789023,136.979643 C66.2184154,136.811296 66.0061798,136.696007 65.7428503,136.634433 C65.6524537,136.609541 65.5555065,136.593165 65.4526639,136.584649 C65.3544067,136.576789 65.263355,136.572858 65.1814739,136.572858 L62.9287628,136.572858 L62.9287628,139.831069 Z M70.2836453,144.243474 L70.2836453,135.357089 L71.5734354,135.357089 L71.5734354,139.189121 L76.0172832,139.189121 L76.0172832,135.357089 L77.3129688,135.357089 L77.3129688,144.243474 L76.0172832,144.243474 L76.0172832,140.404891 L71.5734354,140.404891 L71.5734354,144.243474 L70.2836453,144.243474 Z M81.8052902,144.243474 L81.8052902,140.571928 L78.7999285,135.357089 L80.3058846,135.357089 L82.4596835,139.090864 L84.6134824,135.357089 L86.1194384,135.357089 L83.1134217,140.571928 L83.1134217,144.243474 L81.8052902,144.243474 Z M87.5972274,144.243474 L87.5972274,135.357089 L93.2751863,135.357089 L93.2751863,136.572858 L88.8870176,136.572858 L88.8870176,139.065972 L92.5343266,139.065972 L92.5343266,140.281742 L88.8870176,140.281742 L88.8870176,143.027705 L93.2751863,143.027705 L93.2751863,144.243474 L87.5972274,144.243474 Z" id="Shape" fill="#a1a1aa" fill-rule="nonzero"></path>
                <path d="M180.701865,144.428853 C180.097256,144.428853 179.562081,144.297188 179.096997,144.033859 C178.632568,143.766599 178.266396,143.400427 177.998481,142.935343 C177.735152,142.470258 177.603487,141.935739 177.603487,141.331129 L177.603487,138.270089 C177.603487,137.664824 177.735152,137.130304 177.998481,136.66522 C178.266396,136.200136 178.632568,135.835929 179.096997,135.5726 C179.562081,135.30534 180.097256,135.17171 180.701865,135.17171 C181.306475,135.17171 181.841649,135.30534 182.306734,135.5726 C182.771163,135.835929 183.13537,136.200136 183.398699,136.66522 C183.665959,137.130304 183.800244,137.664824 183.800244,138.270089 L183.800244,141.331129 C183.800244,141.935739 183.665959,142.470258 183.398699,142.935343 C183.13537,143.400427 182.771163,143.766599 182.306734,144.033859 C181.841649,144.297188 181.306475,144.428853 180.701865,144.428853 Z M180.701865,143.194742 C181.0307,143.194742 181.329402,143.116136 181.596661,142.960235 C181.868506,142.799748 182.084017,142.585547 182.244504,142.318287 C182.404991,142.046442 182.485562,141.744465 182.485562,141.411045 L182.485562,138.177072 C182.485562,137.848237 182.404991,137.549535 182.244504,137.282276 C182.084017,137.011086 181.868506,136.796885 181.596661,136.640328 C181.329402,136.479841 181.0307,136.399926 180.701865,136.399926 C180.373031,136.399926 180.072364,136.479841 179.800519,136.640328 C179.533259,136.796885 179.319713,137.011086 179.159227,137.282276 C178.99874,137.549535 178.918169,137.848237 178.918169,138.177072 L178.918169,141.411045 C178.918169,141.744465 178.99874,142.046442 179.159227,142.318287 C179.319713,142.585547 179.533259,142.799748 179.800519,142.960235 C180.072364,143.116136 180.373031,143.194742 180.701865,143.194742 Z M189.195222,144.428853 C188.618779,144.428853 188.100636,144.293258 187.639482,144.021413 C187.178983,143.745637 186.812811,143.36964 186.540966,142.892109 C186.273706,142.415234 186.140077,141.871544 186.140077,141.263004 L186.140077,138.42992 C186.140077,137.784043 186.273706,137.216771 186.540966,136.726795 C186.812811,136.237474 187.187499,135.856891 187.664374,135.585045 C188.145834,135.313855 188.69935,135.177605 189.324921,135.177605 C189.793936,135.177605 190.234129,135.266037 190.645499,135.443555 C191.056869,135.620418 191.41256,135.883748 191.713228,136.232888 L190.768648,137.115893 C190.600301,136.897762 190.388065,136.72483 190.133251,136.597095 C189.882368,136.46543 189.612488,136.399926 189.324921,136.399926 C188.954164,136.399926 188.62926,136.488357 188.349554,136.66522 C188.069849,136.838153 187.849753,137.06611 187.689266,137.350401 C187.532709,137.634037 187.454758,137.938634 187.454758,138.263538 L187.454758,139.892643 L187.20191,139.609007 C187.456724,139.275588 187.773767,139.012258 188.15173,138.819019 C188.530348,138.62578 188.935823,138.528833 189.3675,138.528833 C189.91905,138.528833 190.410992,138.658532 190.842668,138.917931 C191.278931,139.172745 191.620211,139.520576 191.867164,139.960768 C192.118047,140.400961 192.243817,140.896832 192.243817,141.448383 C192.243817,142.003209 192.103636,142.507596 191.823931,142.960235 C191.548155,143.408288 191.178053,143.766599 190.712969,144.033859 C190.25247,144.297188 189.746118,144.428853 189.195222,144.428853 Z M189.195222,143.188191 C189.516196,143.188191 189.808347,143.110241 190.071021,142.953684 C190.334351,142.797783 190.544621,142.587512 190.700523,142.324183 C190.857079,142.060853 190.93503,141.768702 190.93503,141.448383 C190.93503,141.127409 190.857079,140.835258 190.700523,140.571928 C190.548552,140.308599 190.340901,140.098328 190.077572,139.942427 C189.814243,139.78587 189.522091,139.70792 189.201117,139.70792 C188.880144,139.70792 188.586027,139.78587 188.318767,139.942427 C188.055438,140.098328 187.845822,140.308599 187.689266,140.571928 C187.532709,140.835258 187.454758,141.127409 187.454758,141.448383 C187.454758,141.764771 187.532709,142.054958 187.689266,142.318287 C187.845822,142.581617 188.055438,142.793197 188.318767,142.953684 C188.582097,143.110241 188.874248,143.188191 189.195222,143.188191 Z M196.669978,135.357089 L197.972214,135.357089 L195.602249,144.243474 L194.300013,144.243474 L196.669978,135.357089 Z M199.952425,144.237579 L199.958976,143.089934 L203.828346,139.621453 C204.140804,139.345678 204.35304,139.082348 204.463743,138.831465 C204.579032,138.580581 204.636676,138.329698 204.636676,138.078159 C204.636676,137.761771 204.566586,137.47748 204.42706,137.226597 C204.28688,136.971783 204.093641,136.770028 203.846688,136.621987 C203.599734,136.473946 203.316098,136.399926 202.995125,136.399926 C202.665636,136.399926 202.371519,136.477876 202.112775,136.634433 C201.857306,136.786404 201.658171,136.990124 201.514061,137.245593 C201.36995,137.500407 201.29986,137.776182 201.30379,138.072264 L199.983213,138.072264 C199.983213,137.496476 200.112912,136.992089 200.372311,136.560412 C200.635641,136.12415 200.995262,135.784835 201.452486,135.541812 C201.909055,135.294859 202.431128,135.17171 203.020017,135.17171 C203.579428,135.17171 204.081195,135.299444 204.525318,135.554258 C204.970096,135.805142 205.319891,136.151007 205.574705,136.5912 C205.834104,137.031392 205.963804,137.533159 205.963804,138.097156 C205.963804,138.504596 205.91009,138.849806 205.803317,139.134097 C205.695889,139.417733 205.535402,139.681063 205.321856,139.923431 C205.107656,140.166453 204.840396,140.429783 204.519422,140.713419 L201.532402,143.379465 L201.390256,143.009363 L205.963804,143.009363 L205.963804,144.237579 L199.952425,144.237579 Z M211.584118,144.243474 L211.584118,142.69494 L207.572602,142.69494 L207.572602,141.47262 L210.461366,135.357089 L211.935879,135.357089 L209.047771,141.47262 L211.584118,141.47262 L211.584118,139.065972 L212.892905,139.065972 L212.892905,141.47262 L213.775255,141.47262 L213.775255,142.69494 L212.892905,142.69494 L212.892905,144.243474 L211.584118,144.243474 Z" id="Shape" fill="#a1a1aa" fill-rule="nonzero"></path>
                <path d="M298.822144,21.3795326 C300.757156,24.7301702 301.775101,28.5309571 301.775101,32.3999345 C301.775101,36.2689119 300.757156,40.0696988 298.822144,43.4203364 M293.973476,23.8039974 C295.482052,26.4175092 296.276626,29.3821269 296.276626,32.3999345 C296.276626,35.4177421 295.482052,38.3823598 293.973476,40.9958716 M289.344904,26.0301791 C290.43556,27.940038 291.010037,30.1064793 291.010037,32.311765 C291.010037,34.5171162 290.43556,36.6835575 289.344904,38.5934164 M284.716333,28.4325688 C285.502391,29.6226606 285.919657,30.997214 285.919657,32.3999345 C285.919657,33.802655 285.502391,35.1772739 284.716333,36.3673001" id="Shape" stroke="#a1a1aa" stroke-width="4.03771" stroke-linecap="round"></path>
                <rect id="Rectangle" stroke="url(#linearGradient-16ca5a6tpp-2)" stroke-width="1.57022" x="0" y="0" width="324" height="194.4" rx="19.2149"></rect>
            </g>
        </g>
    </g>
</svg>